<?xml version="1.0" encoding="UTF-8" standalone="no"?>
<svg
   xmlns:dc="http://purl.org/dc/elements/1.1/"
   xmlns:cc="http://creativecommons.org/ns#"
   xmlns:rdf="http://www.w3.org/1999/02/22-rdf-syntax-ns#"
   xmlns:svg="http://www.w3.org/2000/svg"
   xmlns="http://www.w3.org/2000/svg"
   xmlns:sodipodi="http://sodipodi.sourceforge.net/DTD/sodipodi-0.dtd"
   xmlns:inkscape="http://www.inkscape.org/namespaces/inkscape"
   width="24"
   height="24"
   viewBox="0 0 24 24"
   version="1.1"
   id="svg42"
   sodipodi:docname="settings_applications-24px.svg"
   inkscape:version="0.92.4 (5da689c313, 2019-01-14)">
  <metadata
     id="metadata48">
    <rdf:RDF>
      <cc:Work
         rdf:about="">
        <dc:format>image/svg+xml</dc:format>
        <dc:type
           rdf:resource="http://purl.org/dc/dcmitype/StillImage" />
        <dc:title></dc:title>
      </cc:Work>
    </rdf:RDF>
  </metadata>
  <defs
     id="defs46" />
  <sodipodi:namedview
     pagecolor="#ffffff"
     bordercolor="#666666"
     borderopacity="1"
     objecttolerance="10"
     gridtolerance="10"
     guidetolerance="10"
     inkscape:pageopacity="0"
     inkscape:pageshadow="2"
     inkscape:window-width="1087"
     inkscape:window-height="851"
     id="namedview44"
     showgrid="false"
     inkscape:zoom="13.906433"
     inkscape:cx="11.447993"
     inkscape:cy="23.104487"
     inkscape:window-x="2567"
     inkscape:window-y="295"
     inkscape:window-maximized="0"
     inkscape:current-layer="svg42" />
  <path
     d="M0 0h24v24H0z"
     fill="none"
     id="path38" />
  <path
     d="m 12,10 c -1.1,0 -2,0.9 -2,2 0,1.1 0.9,2 2,2 1.1,0 2,-0.9 2,-2 0,-1.1 -0.9,-2 -2,-2 z m 5.25,2 c 0,0.23 -0.02,0.46 -0.05,0.68 l 1.48,1.16 c 0.13,0.11 0.17,0.3 0.08,0.45 l -1.4,2.42 c -0.09,0.15 -0.27,0.21 -0.43,0.15 l -1.74,-0.7 c -0.36,0.28 -0.76,0.51 -1.18,0.69 L 13.75,18.7 C 13.72,18.87 13.57,19 13.4,19 h -2.8 c -0.17,0 -0.32,-0.13 -0.35,-0.29 L 9.99,16.86 C 9.56,16.68 9.17,16.45 8.81,16.17 l -1.74,0.7 c -0.16,0.06 -0.34,0 -0.43,-0.15 L 5.24,14.3 C 5.15,14.15 5.19,13.96 5.32,13.85 L 6.8,12.69 C 6.77,12.46 6.75,12.23 6.75,12 6.75,11.77 6.77,11.54 6.8,11.32 L 5.32,10.16 C 5.19,10.05 5.15,9.86 5.24,9.71 L 6.64,7.29 C 6.73,7.14 6.91,7.08 7.07,7.14 l 1.74,0.7 C 9.17,7.56 9.57,7.33 9.99,7.15 L 10.25,5.3 C 10.28,5.13 10.43,5 10.6,5 h 2.8 c 0.17,0 0.32,0.13 0.35,0.29 l 0.26,1.85 c 0.43,0.18 0.82,0.41 1.18,0.69 l 1.74,-0.7 c 0.16,-0.06 0.34,0 0.43,0.15 l 1.4,2.42 c 0.09,0.15 0.05,0.34 -0.08,0.45 l -1.48,1.16 c 0.03,0.23 0.05,0.46 0.05,0.69 z"
     id="path40"
     inkscape:connector-curvature="0"
     sodipodi:nodetypes="ssssssccccccccssccccccccsccccccccssccccccccs" />
</svg>
